<svg width="1068" height="400" viewBox="0 0 1068 400" fill="none" xmlns="http://www.w3.org/2000/svg">
<path fill-rule="evenodd" clip-rule="evenodd" d="M310.465 79.5472C363.495 95.0514 398.405 120.877 398.405 148.259C398.405 196.019 309.164 239.798 199.312 239.798C89.4607 239.798 0.408203 196.019 0.408203 148.347C0.408203 120.886 35.3066 95.0182 88.3592 79.5108C90.5547 71.2996 93.7694 64.5579 95.7849 61.0449C116.358 25.1977 155.049 1 199.407 1C243.765 1 282.455 25.1961 303.028 61.0432C305.053 64.5722 308.272 71.3255 310.465 79.5472ZM107.867 67.9769C106.928 69.6153 105.666 72.1505 104.425 75.2677C102.132 81.0268 99.9074 88.7726 99.9075 96.5193C99.9075 122.896 144.455 144.279 199.407 144.279C254.359 144.279 298.906 122.896 298.906 96.5193L298.906 96.4783C298.898 88.7585 296.689 81.0486 294.404 75.3031C293.159 72.1725 291.892 69.625 290.946 67.9769C272.755 36.2799 238.574 14.9299 199.407 14.9299C160.239 14.9299 126.059 36.2799 107.867 67.9769ZM89.7885 356.619C92.905 350.804 100.145 348.617 105.96 351.733C133.786 366.646 165.591 375.108 199.407 375.108C233.224 375.108 265.028 366.646 292.854 351.733C298.669 348.617 305.91 350.804 309.026 356.619C312.143 362.434 309.955 369.675 304.14 372.791C272.929 389.518 237.257 399 199.407 399C161.557 399 125.886 389.518 94.6747 372.791C88.8596 369.675 86.672 362.434 89.7885 356.619ZM114.982 315.183C118.099 309.368 125.339 307.181 131.154 310.297C151.474 321.187 174.7 327.368 199.405 327.368C224.11 327.368 247.336 321.187 267.656 310.297C273.471 307.181 280.711 309.368 283.828 315.183C286.944 320.998 284.756 328.239 278.941 331.355C255.236 344.06 228.143 351.26 199.405 351.26C170.666 351.26 143.574 344.06 119.868 331.355C114.053 328.239 111.866 320.998 114.982 315.183ZM140.224 273.6C143.338 267.788 150.575 265.601 156.387 268.716C169.191 275.578 183.826 279.474 199.406 279.474C214.987 279.474 229.622 275.578 242.425 268.716C248.237 265.601 255.474 267.788 258.589 273.6C261.704 279.412 259.518 286.649 253.705 289.764C237.518 298.439 219.019 303.354 199.406 303.354C179.794 303.354 161.295 298.439 145.107 289.764C139.295 286.649 137.109 279.412 140.224 273.6ZM524.262 165.786C533.298 156.893 543.194 149.794 553.951 144.487C564.708 139.037 577.257 136.312 591.6 136.312C603.647 136.312 614.189 138.32 623.224 142.336C632.404 146.352 640.077 152.017 646.244 159.332C652.555 166.646 657.287 175.467 660.443 185.793C663.598 195.976 665.176 207.235 665.176 219.57V359.192H619.137V219.57C619.137 204.797 615.695 193.323 608.81 185.148C602.069 176.973 591.743 172.885 577.831 172.885C567.504 172.885 557.895 175.252 549.003 179.985C540.254 184.718 532.007 191.172 524.262 199.347V359.192H478.008V40.7922H524.262V165.786ZM907.764 139.754L819.559 359.192H777.823L689.617 139.754H727.696C731.282 139.754 734.222 140.687 736.517 142.551C738.955 144.272 740.532 146.352 741.25 148.79L789.87 276.58C791.878 282.604 793.671 288.556 795.248 294.437C796.826 300.317 798.189 306.269 799.336 312.293C800.483 306.269 801.846 300.389 803.424 294.652C805.145 288.771 807.009 282.748 809.017 276.58L858.498 148.79C859.359 146.208 860.936 144.057 863.231 142.336C865.526 140.615 868.323 139.754 871.621 139.754H907.764ZM1008 147.714C998.248 155.603 989.929 166.503 983.045 180.415L980.248 151.802C979.531 147.356 978.24 144.272 976.375 142.551C974.511 140.687 971.141 139.754 966.264 139.754H939.372V359.192H985.626V222.797C988.208 216.199 991.005 210.319 994.017 205.155C997.028 199.992 1000.47 195.618 1004.34 192.032C1008.36 188.447 1012.8 185.722 1017.68 183.857C1022.7 181.993 1028.44 181.06 1034.89 181.06C1039.34 181.06 1043.57 181.491 1047.59 182.351C1051.6 183.068 1054.68 183.427 1056.84 183.427C1058.84 183.427 1060.42 182.997 1061.57 182.136C1062.86 181.132 1063.79 179.411 1064.37 176.973L1067.59 142.121C1064.29 139.97 1060.56 138.392 1056.41 137.388C1052.25 136.241 1047.8 135.667 1043.07 135.667C1029.44 135.667 1017.75 139.683 1008 147.714Z" fill="url(#paint0_linear)"/>
<defs>
<linearGradient id="paint0_linear" x1="534" y1="1" x2="534" y2="399" gradientUnits="userSpaceOnUse">
<stop stop-color="#0A79FB"/>
<stop offset="1" stop-color="#12CD83"/>
</linearGradient>
</defs>
</svg>
