<svg width="400" height="401" viewBox="0 0 400 401" fill="currentcolor" xmlns="http://www.w3.org/2000/svg">
<path fill-rule="evenodd" clip-rule="evenodd" d="M398.999 148.26C398.999 120.878 364.088 95.0524 311.059 79.5482C308.865 71.3265 305.646 64.5732 303.621 61.0442C283.048 25.197 244.358 1.00098 200 1.00098C155.642 1.00098 116.951 25.1987 96.3781 61.0458C94.3627 64.5588 91.148 71.3006 88.9525 79.5118C35.8998 95.0192 1.00146 120.887 1.00146 148.348C1.00146 196.02 90.0539 239.799 199.906 239.799C309.757 239.799 398.999 196.02 398.999 148.26ZM105.018 75.2687C106.259 72.1515 107.521 69.6162 108.461 67.9779C126.652 36.2809 160.833 14.9309 200 14.9309C239.167 14.9309 273.348 36.2809 291.539 67.9779C292.485 69.626 293.753 72.1734 294.998 75.3041C297.282 81.0496 299.492 88.7594 299.499 96.4793L299.499 96.5203C299.499 122.897 254.952 144.28 200 144.28C145.048 144.28 100.501 122.897 100.501 96.5203C100.501 88.7735 102.725 81.0278 105.018 75.2687Z" fill="white"/>
<path d="M106.554 351.734C100.739 348.618 93.4983 350.805 90.3818 356.62C87.2653 362.435 89.4529 369.676 95.2679 372.792C126.479 389.519 162.15 399.001 200.001 399.001C237.851 399.001 273.522 389.519 304.733 372.792C310.548 369.676 312.736 362.435 309.619 356.62C306.503 350.805 299.262 348.618 293.447 351.734C265.622 366.647 233.817 375.109 200.001 375.109C166.184 375.109 134.379 366.647 106.554 351.734Z" fill="white"/>
<path d="M115.575 315.184C118.692 309.369 125.932 307.182 131.747 310.298C152.067 321.188 175.293 327.369 199.998 327.369C224.703 327.369 247.929 321.188 268.249 310.298C274.064 307.182 281.304 309.369 284.421 315.184C287.537 320.999 285.35 328.24 279.535 331.356C255.829 344.061 228.737 351.261 199.998 351.261C171.259 351.261 144.167 344.061 120.461 331.356C114.646 328.24 112.459 320.999 115.575 315.184Z" fill="white"/>
<path d="M156.981 268.717C151.169 265.602 143.932 267.789 140.817 273.601C137.702 279.413 139.888 286.65 145.701 289.765C161.888 298.44 180.387 303.355 200 303.355C219.612 303.355 238.111 298.44 254.299 289.765C260.111 286.65 262.297 279.413 259.182 273.601C256.067 267.789 248.831 265.602 243.019 268.717C230.215 275.579 215.58 279.475 200 279.475C184.419 279.475 169.784 275.579 156.981 268.717Z" fill="white"/>
</svg>
